PathFileType	4	(X/Y/Z)	C:\Users\Basilio\Documents\Thesis Gigler\squatting_fais\c3dfiles\073\SLS_front_pre3\markers_experimental.trc
DataRate	CameraRate	NumFrames	NumMarkers	Units	OrigDataRate	OrigDataStartFrame	OrigNumFrames
200.000000	200.000000	4	61	mm	200.000000	338	1353
Frame#	Time	FHD			LBHD			RBHD			C7			T10			CLAV			LSHO			LUUPA			LMUPA			LDUPA			LLEP			LMEP			LRAD			LUL			LRFIN			RSHO			RUPA1			RMUPA			RDUPA			RLEP			RMEP			RRAD			RUL			RUFIN			LASI			RASI			USACR			LSACR			RSACR			LTHI1			LTHI2			LTHI3			LTHI4			LLFC			LMFC			LTIB1			LTIB2			LTIB3			LTIB4			LLMAL			LMMAL			LHEE			LMT1			LMT2			LMT5			RTHI			RTHI2			RTHI3			RTHI4			RLFC			RMFC			RTIB1			RTIB2			RTIB3			RTIB4			RLMAL			RMMAL			RHEE			RMT1			RMT2			RMT5			
		X1	Y1	Z1	X2	Y2	Z2	X3	Y3	Z3	X4	Y4	Z4	X5	Y5	Z5	X6	Y6	Z6	X7	Y7	Z7	X8	Y8	Z8	X9	Y9	Z9	X10	Y10	Z10	X11	Y11	Z11	X12	Y12	Z12	X13	Y13	Z13	X14	Y14	Z14	X15	Y15	Z15	X16	Y16	Z16	X17	Y17	Z17	X18	Y18	Z18	X19	Y19	Z19	X20	Y20	Z20	X21	Y21	Z21	X22	Y22	Z22	X23	Y23	Z23	X24	Y24	Z24	X25	Y25	Z25	X26	Y26	Z26	X27	Y27	Z27	X28	Y28	Z28	X29	Y29	Z29	X30	Y30	Z30	X31	Y31	Z31	X32	Y32	Z32	X33	Y33	Z33	X34	Y34	Z34	X35	Y35	Z35	X36	Y36	Z36	X37	Y37	Z37	X38	Y38	Z38	X39	Y39	Z39	X40	Y40	Z40	X41	Y41	Z41	X42	Y42	Z42	X43	Y43	Z43	X44	Y44	Z44	X45	Y45	Z45	X46	Y46	Z46	X47	Y47	Z47	X48	Y48	Z48	X49	Y49	Z49	X50	Y50	Z50	X51	Y51	Z51	X52	Y52	Z52	X53	Y53	Z53	X54	Y54	Z54	X55	Y55	Z55	X56	Y56	Z56	X57	Y57	Z57	X58	Y58	Z58	X59	Y59	Z59	X60	Y60	Z60	X61	Y61	Z61	

339	1.69	-214.0225524902344	1638.286499023438	-784.7790527343752	-349.4885864257813	1619.276123046875	-814.461608886719	-378.7882995605469	1602.754028320313	-681.9111938476564	-415.7702941894532	1504.675170898438	-746.8853759765626	-512.3861694335939	1180.572631835938	-747.5362548828126	-300.7515258789063	1408.056030273438	-744.8446655273439	-322.9559936523438	1459.018310546875	-890.5371093750002	-239.5505523681641	1382.800170898438	-982.0132446289065	-199.4489746093751	1404.583251953125	-960.5113525390627	-176.2898559570313	1356.3134765625	-989.4890747070315	-71.60112762451173	1334.3974609375	-991.4843750000002	-73.3345184326172	1282.622802734375	-943.376403808594	186.5944061279297	1380.128051757813	-882.3126220703127	190.1211242675782	1371.854125976563	-956.1688232421877	266.7529602050782	1396.347290039063	-877.0349731445315	-316.4671936035157	1451.563720703125	-601.0838012695314	-224.0563507080079	1356.870239257813	-503.8562011718751	-185.6446838378907	1380.0908203125	-521.3834228515626	-160.2280731201172	1331.126342773438	-498.3901367187501	-67.63208007812501	1316.999389648438	-500.2024230957032	-70.42008209228517	1262.656860351563	-562.2455444335939	183.3363647460938	1356.676513671875	-618.0457153320314	193.6983184814454	1362.738525390625	-542.8258056640626	271.3601074218751	1383.56005859375	-623.8906860351564	-364.0809020996094	1025.042358398438	-888.6582641601565	-350.7835998535157	998.7112426757815	-638.3033447265626	-539.7081909179689	1059.855712890625	-749.8058471679689	-550.5201416015626	1032.495239257813	-780.1638793945315	-549.9899291992189	1025.53662109375	-724.4496459960939	-237.2930145263672	774.1589355468752	-946.869812011719	-162.7294006347657	739.2977905273439	-926.159851074219	-137.820556640625	766.7743530273439	-892.9699707031252	-150.975570678711	681.4123535156251	-918.7576904296877	-114.517204284668	633.9998168945314	-919.1164550781252	-118.2455139160157	624.3804931640626	-779.0599365234377	44.00181579589844	506.5452880859376	-866.850036621094	23.2422046661377	439.5713806152345	-920.5037841796877	59.67013168334962	458.746795654297	-898.8972778320315	107.8783111572266	397.1690979003907	-865.271667480469	130.5331420898438	264.9218139648438	-891.0776367187502	124.3930130004883	289.9873657226563	-806.711364746094	106.0448913574219	202.3701171875001	-847.8172607421877	284.0117492675782	336.6017761230469	-808.7027587890627	284.1642761230469	338.6706848144532	-847.0369262695315	270.2652893066407	298.6829528808594	-900.6118774414065	-375.4846496582032	758.0587158203126	-589.2081909179689	-323.8591003417969	716.5591430664064	-590.6727294921876	-292.5271911621094	728.8237915039064	-592.2041015625001	-323.7924804687501	637.0593261718751	-616.6278686523439	-270.1645507812501	501.2738342285157	-639.0442504882814	-260.6719970703126	504.9775695800782	-767.6775512695314	-250.6518096923829	346.1482849121094	-743.7272338867189	-287.5180053710938	262.7175903320313	-685.9979248046876	-263.7667541503907	261.6301574707032	-728.3424072265626	-290.6328125000001	224.9307708740235	-764.3905029296876	-362.1261596679688	100.0400848388672	-722.2061767578126	-351.7077941894532	130.5774078369141	-807.9072265625002	-433.1101379394532	83.44541931152345	-781.2955322265627	-208.8477020263672	55.34294509887697	-787.983581542969	-210.3444519042969	52.03350830078126	-746.9053344726564	-255.3589019775391	34.13264465332032	-700.6076660156251	
340	1.695	-213.8480224609376	1637.149780273438	-784.8343505859377	-349.0650329589844	1618.073364257813	-814.4888305664065	-378.3189392089844	1601.597290039063	-681.8532714843751	-415.378387451172	1503.700561523438	-746.8554687500001	-512.6101684570314	1179.809814453125	-747.4406738281251	-301.1212768554688	1406.476196289063	-744.8977050781251	-322.6473388671876	1457.822875976563	-890.4270629882815	-239.1926269531251	1381.606689453125	-981.8702392578127	-199.0916900634766	1403.421020507813	-960.3629150390627	-175.9665832519532	1354.993530273438	-989.3289794921877	-71.16732788085939	1333.149291992188	-991.443054199219	-72.98558044433595	1281.6123046875	-943.2329711914065	186.9063415527344	1378.902221679688	-882.2139282226565	190.3200378417969	1370.6728515625	-956.0881958007815	266.9493713378907	1395.377075195313	-877.0500488281252	-316.1560363769532	1450.510986328125	-601.1401367187501	-223.8466186523438	1355.697387695313	-503.8319091796876	-185.466796875	1378.935180664063	-521.3609008789064	-160.0292510986328	1330.009887695313	-498.262664794922	-67.43048095703126	1316.055053710938	-500.0930480957032	-70.18750762939455	1261.64404296875	-562.0828247070314	183.3621368408203	1355.310791015625	-617.7445068359376	193.9155883789063	1361.685424804688	-542.5993652343751	271.4637451171876	1382.52490234375	-623.7840576171876	-364.6162719726563	1024.092529296875	-888.549255371094	-351.5881652832032	997.9370117187502	-638.7816772460939	-540.2263793945314	1059.036987304688	-749.7773437500001	-550.9998168945314	1031.632934570313	-780.1329345703127	-550.4080200195314	1024.562744140625	-724.3148803710939	-237.1734008789063	773.6108398437502	-946.583190917969	-162.6168518066407	739.0066528320314	-925.9151000976565	-137.7817840576172	766.4695434570314	-892.7688598632815	-150.7890014648438	681.0888061523439	-918.6175537109377	-114.0534210205078	633.8002929687501	-918.8015136718752	-117.7955780029297	624.2324218750001	-778.8041992187502	44.65197753906251	506.7126770019532	-866.472595214844	24.30924034118653	439.8735961914064	-919.9199218750002	60.42663192749025	458.9150390625001	-898.5804443359377	108.6380767822266	397.450653076172	-864.978454589844	131.7617797851563	265.2557373046876	-890.5293579101565	125.5221405029297	290.3276977539063	-806.166198730469	107.2369537353516	202.6754760742188	-847.4664306640627	284.0401306152344	337.3127746582032	-807.3446044921877	284.8032226562501	339.2138061523438	-846.354675292969	271.4692077636719	299.2824401855469	-899.9696044921877	-375.2192993164063	757.2429809570314	-588.9243774414064	-323.3982849121094	715.9395141601564	-590.5715942382814	-292.1438903808594	728.3424682617189	-592.1019287109376	-323.1040039062501	636.5321655273439	-616.5103759765626	-269.2301940917969	500.8066406250001	-638.7440795898439	-259.5773620605469	504.6699218750001	-767.5134277343751	-249.9922180175782	345.7124023437501	-743.6419677734376	-286.9756164550782	262.4344482421876	-685.9075317382814	-262.8958435058594	261.2525329589844	-728.0305786132814	-290.4607849121094	224.7320098876954	-764.3237304687501	-362.1065979003907	100.012809753418	-722.2006225585939	-351.6571350097657	130.6066436767578	-807.8447875976565	-433.1123352050782	83.45013427734376	-781.318786621094	-208.8321838378907	55.36202621459962	-788.0028076171877	-210.3225250244141	52.03110504150392	-746.8409423828126	-255.3472137451172	34.10183715820313	-700.6080932617189	
341	1.7	-213.1943969726563	1635.808227539063	-785.0005493164065	-348.5037231445313	1616.927124023438	-814.4846801757815	-377.8327331542969	1600.585327148438	-681.8364868164064	-414.9006347656251	1502.581420898438	-746.8325195312501	-512.7890014648439	1179.0615234375	-747.3652954101564	-300.3848571777344	1405.584716796875	-744.7907104492189	-322.2999572753907	1456.732055664063	-890.384216308594	-238.8939971923829	1380.51123046875	-981.7686157226565	-198.7640228271485	1402.345947265625	-960.3327636718752	-175.6159362792969	1353.820190429688	-989.268981933594	-70.78501129150392	1332.08544921875	-991.2720947265627	-72.61755371093751	1280.4150390625	-943.172058105469	187.1334075927735	1378.019409179688	-882.1118164062502	190.8995056152344	1369.624145507813	-956.0442504882815	267.1888732910157	1394.25537109375	-876.7617187500002	-315.8612365722657	1449.22021484375	-601.3001708984376	-223.5730743408204	1354.667114257813	-503.6263122558595	-185.2881774902344	1377.897094726563	-521.2296752929689	-159.8222961425782	1328.981811523438	-498.2357788085939	-67.26488494873048	1314.814697265625	-499.9185180664064	-69.96070861816408	1260.462280273438	-561.9687500000001	183.6069946289063	1354.504760742188	-617.5618286132814	194.1905975341797	1360.61865234375	-542.3699951171876	271.7127075195313	1381.551025390625	-623.4893798828126	-365.1732482910157	1022.982360839844	-888.521911621094	-351.9195861816407	996.9981079101565	-638.1354370117189	-540.6828002929689	1057.990234375	-749.7804565429689	-551.4148559570314	1030.642578125	-780.096618652344	-550.9265747070314	1023.710021972656	-724.2747192382814	-237.1441497802735	773.0674438476565	-946.3955078125002	-162.4991607666016	738.6992187500001	-925.681823730469	-137.7085723876953	766.2028198242189	-892.5230102539065	-150.5084686279297	680.7233276367189	-918.2797851562502	-113.605941772461	633.6165161132814	-918.5003662109377	-117.3873901367188	624.0874023437501	-778.5794677734377	45.38645935058594	506.8596191406251	-866.0603637695315	25.18280792236329	439.9582824707032	-919.5043945312502	61.10798263549806	459.1148071289064	-898.1524658203127	109.5674819946289	397.7513427734376	-864.4226074218752	132.8935852050782	265.6683349609376	-890.2217407226565	126.5117797851563	290.5947265625001	-805.7839355468752	108.4622955322266	202.9442138671876	-847.0454711914065	284.8697204589844	337.9200439453126	-806.922790527344	285.8209533691407	339.8785705566407	-845.807312011719	272.3703613281251	299.9148559570313	-899.5109863281252	-374.9824218750001	756.4197998046876	-588.8869018554689	-322.9752807617188	715.3578491210939	-590.4957275390626	-291.7946472167969	727.7969970703126	-591.9829101562501	-322.3230590820313	635.8980712890626	-616.2939453125001	-268.0491333007813	500.4266357421876	-638.4833984375001	-258.4624328613282	504.3640747070314	-767.3005981445314	-249.3408966064454	345.3250427246094	-743.6295166015626	-286.4790344238282	262.2242736816407	-685.8444824218751	-262.4286193847657	260.9295349121094	-728.0537719726564	-290.0858459472657	224.4736022949219	-764.3265991210939	-362.0502319335938	99.9643478393555	-722.2026367187501	-351.5857543945313	130.6352233886719	-807.8526000976565	-433.1288452148439	83.42421722412111	-781.325134277344	-208.8346405029297	55.37507629394533	-787.9746093750002	-210.3519134521485	52.0154266357422	-746.8984375000001	-255.3512420654297	34.11846542358399	-700.6107177734376	
342	1.705	-212.9006652832032	1634.640380859375	-784.8745117187502	-348.0993347167969	1615.813598632813	-814.5087890625002	-377.4424133300782	1599.47900390625	-681.9108886718751	-414.526824951172	1501.567504882813	-746.8232421875001	-513.0744628906251	1178.181030273438	-747.2944335937501	-300.5033264160157	1404.02880859375	-744.8134765625001	-321.8454284667969	1455.665771484375	-890.2714843750002	-238.6168670654297	1379.38134765625	-981.7235107421877	-198.3285675048829	1401.197631835938	-960.1987915039065	-175.5772552490235	1353.199096679688	-989.6436157226565	-70.76126861572267	1330.85205078125	-991.2044677734377	-72.36209106445314	1279.17626953125	-943.1126098632815	187.4503936767578	1376.609985351563	-881.9923095703127	191.1341247558594	1368.505737304688	-955.8280029296877	267.4005737304688	1393.267944335938	-876.5643310546877	-315.5673522949219	1448.243896484375	-601.0406494140626	-223.4327697753907	1353.533447265625	-503.6272583007814	-185.0437469482422	1376.748657226563	-521.1499633789064	-159.6134490966797	1327.83984375	-498.0257568359376	-67.08644866943361	1313.662109375	-499.8122863769532	-69.71121215820314	1259.286865234375	-561.7813720703126	183.7673492431641	1353.622680664063	-617.2619018554689	194.3594665527344	1359.548583984375	-542.0778808593751	272.0062561035157	1380.504028320313	-623.2758789062501	-365.6978149414063	1021.960144042969	-888.512878417969	-352.5293579101563	996.046813964844	-638.1225585937501	-541.1545410156251	1057.080444335938	-749.7647705078126	-551.8042602539064	1029.691650390625	-780.018737792969	-551.3695068359376	1022.826049804688	-724.2449951171876	-237.0963439941407	772.436462402344	-946.2385864257815	-162.3799743652344	738.3765869140626	-925.4578857421877	-137.6899108886719	765.9591674804689	-892.4030761718752	-150.1021881103516	680.3408203125001	-917.9522094726565	-113.2620086669922	633.4090576171876	-918.3215332031252	-116.9927368164063	623.9354858398439	-778.2964477539065	46.14213943481446	507.0396118164064	-865.7209472656252	25.58143043518067	439.9403686523439	-919.1945800781252	61.86375427246095	459.2864074707032	-897.659606933594	110.4597320556641	398.0020141601564	-864.096862792969	133.9654235839844	265.9103698730469	-889.8096313476565	127.4599761962891	290.9292602539063	-805.4566040039065	109.6649627685547	203.1873168945313	-846.5796508789065	285.8198852539063	338.5112609863282	-806.3643188476565	286.6569213867188	340.5018920898438	-845.229187011719	273.4417419433594	300.5744018554688	-899.1404418945315	-374.6592712402344	755.6090087890626	-588.6934204101564	-322.6079711914063	714.7702026367189	-590.2959594726564	-291.4843139648438	727.3084716796876	-591.6939086914064	-321.6682434082032	635.3303833007814	-616.1002807617189	-267.0219421386719	500.0120239257814	-638.3704833984376	-257.5133361816407	504.111053466797	-767.1309814453126	-248.5653686523438	345.0516967773438	-743.6189575195314	-286.0395812988282	261.9860839843751	-685.7472534179689	-261.9718322753907	260.6013488769532	-728.0228881835939	-289.7873535156251	224.3438262939454	-764.2838745117189	-361.9957275390626	99.91198730468753	-722.1766967773439	-351.5051269531251	130.5992889404297	-807.7895507812502	-433.1167907714845	83.43135070800783	-781.267028808594	-208.8480529785157	55.38175582885744	-787.962585449219	-210.3435211181641	52.0115203857422	-746.8968505859376	-255.3428955078126	34.09622955322266	-700.6074829101564	
